<svg width="74" height="26" viewBox="0 0 74 26" fill="none" xmlns="http://www.w3.org/2000/svg">
<path d="M0.609253 13.456C0.609253 12.2085 0.84135 11.1133 1.30554 10.1704C1.78424 9.22753 2.42976 8.50222 3.2421 7.99451C4.05444 7.4868 4.96106 7.23295 5.96198 7.23295C6.81784 7.23295 7.5649 7.40702 8.20316 7.75516C8.85593 8.10331 9.35639 8.56025 9.70454 9.12598V7.40702H13.4253V19.5486H9.70454V17.8296C9.34189 18.3953 8.83417 18.8523 8.1814 19.2004C7.54314 19.5486 6.79608 19.7226 5.94022 19.7226C4.95381 19.7226 4.05444 19.4688 3.2421 18.9611C2.42976 18.4389 1.78424 17.7063 1.30554 16.7634C0.84135 15.806 0.609253 14.7036 0.609253 13.456ZM9.70454 13.4778C9.70454 12.5494 9.44343 11.8169 8.92121 11.2801C8.4135 10.7434 7.78974 10.475 7.04993 10.475C6.31012 10.475 5.67911 10.7434 5.15689 11.2801C4.64918 11.8023 4.39533 12.5276 4.39533 13.456C4.39533 14.3844 4.64918 15.1242 5.15689 15.6755C5.67911 16.2122 6.31012 16.4805 7.04993 16.4805C7.78974 16.4805 8.4135 16.2122 8.92121 15.6755C9.44343 15.1387 9.70454 14.4062 9.70454 13.4778ZM23.5152 7.27647C24.9368 7.27647 26.0683 7.74066 26.9097 8.66904C27.7655 9.58292 28.1934 10.8449 28.1934 12.4551V19.5486H24.4944V12.9556C24.4944 12.1432 24.2841 11.5122 23.8634 11.0625C23.4427 10.6129 22.877 10.388 22.1662 10.388C21.4554 10.388 20.8897 10.6129 20.469 11.0625C20.0483 11.5122 19.838 12.1432 19.838 12.9556V19.5486H16.1172V7.40702H19.838V9.01719C20.2151 8.48047 20.7228 8.05979 21.3611 7.75516C21.9994 7.43603 22.7174 7.27647 23.5152 7.27647ZM30.0392 13.456C30.0392 12.2085 30.2713 11.1133 30.7355 10.1704C31.2142 9.22753 31.8597 8.50222 32.6721 7.99451C33.4844 7.4868 34.391 7.23295 35.3919 7.23295C36.2478 7.23295 36.9949 7.40702 37.6331 7.75516C38.2859 8.10331 38.7864 8.56025 39.1345 9.12598V7.40702H42.8553V19.5486H39.1345V17.8296C38.7718 18.3953 38.2641 18.8523 37.6114 19.2004C36.9731 19.5486 36.226 19.7226 35.3702 19.7226C34.3838 19.7226 33.4844 19.4688 32.6721 18.9611C31.8597 18.4389 31.2142 17.7063 30.7355 16.7634C30.2713 15.806 30.0392 14.7036 30.0392 13.456ZM39.1345 13.4778C39.1345 12.5494 38.8734 11.8169 38.3512 11.2801C37.8435 10.7434 37.2197 10.475 36.4799 10.475C35.7401 10.475 35.1091 10.7434 34.5869 11.2801C34.0791 11.8023 33.8253 12.5276 33.8253 13.456C33.8253 14.3844 34.0791 15.1242 34.5869 15.6755C35.1091 16.2122 35.7401 16.4805 36.4799 16.4805C37.2197 16.4805 37.8435 16.2122 38.3512 15.6755C38.8734 15.1387 39.1345 14.4062 39.1345 13.4778ZM49.2679 9.12598C49.6306 8.56025 50.131 8.10331 50.7693 7.75516C51.4076 7.40702 52.1546 7.23295 53.0105 7.23295C54.0114 7.23295 54.918 7.4868 55.7304 7.99451C56.5427 8.50222 57.181 9.22753 57.6452 10.1704C58.1239 11.1133 58.3632 12.2085 58.3632 13.456C58.3632 14.7036 58.1239 15.806 57.6452 16.7634C57.181 17.7063 56.5427 18.4389 55.7304 18.9611C54.918 19.4688 54.0114 19.7226 53.0105 19.7226C52.1691 19.7226 51.4221 19.5486 50.7693 19.2004C50.131 18.8523 49.6306 18.4026 49.2679 17.8514V25.3365H45.5471V7.40702H49.2679V9.12598ZM54.5771 13.456C54.5771 12.5276 54.316 11.8023 53.7938 11.2801C53.2861 10.7434 52.6551 10.475 51.9008 10.475C51.161 10.475 50.53 10.7434 50.0077 11.2801C49.5 11.8169 49.2462 12.5494 49.2462 13.4778C49.2462 14.4062 49.5 15.1387 50.0077 15.6755C50.53 16.2122 51.161 16.4805 51.9008 16.4805C52.6406 16.4805 53.2716 16.2122 53.7938 15.6755C54.316 15.1242 54.5771 14.3844 54.5771 13.456ZM64.036 9.12598C64.3987 8.56025 64.8991 8.10331 65.5374 7.75516C66.1757 7.40702 66.9227 7.23295 67.7786 7.23295C68.7795 7.23295 69.6861 7.4868 70.4985 7.99451C71.3108 8.50222 71.9491 9.22753 72.4133 10.1704C72.892 11.1133 73.1313 12.2085 73.1313 13.456C73.1313 14.7036 72.892 15.806 72.4133 16.7634C71.9491 17.7063 71.3108 18.4389 70.4985 18.9611C69.6861 19.4688 68.7795 19.7226 67.7786 19.7226C66.9372 19.7226 66.1902 19.5486 65.5374 19.2004C64.8991 18.8523 64.3987 18.4026 64.036 17.8514V25.3365H60.3152V7.40702H64.036V9.12598ZM69.3452 13.456C69.3452 12.5276 69.0841 11.8023 68.5619 11.2801C68.0542 10.7434 67.4232 10.475 66.6689 10.475C65.9291 10.475 65.2981 10.7434 64.7758 11.2801C64.2681 11.8169 64.0143 12.5494 64.0143 13.4778C64.0143 14.4062 64.2681 15.1387 64.7758 15.6755C65.2981 16.2122 65.9291 16.4805 66.6689 16.4805C67.4087 16.4805 68.0397 16.2122 68.5619 15.6755C69.0841 15.1242 69.3452 14.3844 69.3452 13.456Z" fill="#303031"/>
</svg>
