<svg width="74" height="26" viewBox="0 0 74 26" fill="none" xmlns="http://www.w3.org/2000/svg">
<path d="M0.609253 13.4109C0.609253 12.1634 0.84135 11.0682 1.30554 10.1253C1.78424 9.18244 2.42976 8.45713 3.2421 7.94942C4.05444 7.44171 4.96106 7.18786 5.96198 7.18786C6.81784 7.18786 7.5649 7.36193 8.20316 7.71007C8.85593 8.05822 9.35639 8.51516 9.70454 9.08089V7.36193H13.4253V19.5035H9.70454V17.7845C9.34189 18.3502 8.83417 18.8072 8.1814 19.1553C7.54314 19.5035 6.79608 19.6776 5.94022 19.6776C4.95381 19.6776 4.05444 19.4237 3.2421 18.916C2.42976 18.3938 1.78424 17.6612 1.30554 16.7183C0.84135 15.7609 0.609253 14.6585 0.609253 13.4109ZM9.70454 13.4327C9.70454 12.5043 9.44343 11.7718 8.92121 11.235C8.4135 10.6983 7.78974 10.43 7.04993 10.43C6.31012 10.43 5.67911 10.6983 5.15689 11.235C4.64918 11.7573 4.39533 12.4826 4.39533 13.4109C4.39533 14.3393 4.64918 15.0791 5.15689 15.6304C5.67911 16.1671 6.31012 16.4355 7.04993 16.4355C7.78974 16.4355 8.4135 16.1671 8.92121 15.6304C9.44343 15.0936 9.70454 14.3611 9.70454 13.4327ZM23.5152 7.23138C24.9368 7.23138 26.0683 7.69557 26.9097 8.62395C27.7655 9.53783 28.1934 10.7999 28.1934 12.41V19.5035H24.4944V12.9105C24.4944 12.0981 24.2841 11.4671 23.8634 11.0174C23.4427 10.5678 22.877 10.3429 22.1662 10.3429C21.4554 10.3429 20.8897 10.5678 20.469 11.0174C20.0483 11.4671 19.838 12.0981 19.838 12.9105V19.5035H16.1172V7.36193H19.838V8.9721C20.2151 8.43538 20.7228 8.0147 21.3611 7.71007C21.9994 7.39094 22.7174 7.23138 23.5152 7.23138ZM30.0392 13.4109C30.0392 12.1634 30.2713 11.0682 30.7355 10.1253C31.2142 9.18244 31.8597 8.45713 32.6721 7.94942C33.4844 7.44171 34.391 7.18786 35.3919 7.18786C36.2478 7.18786 36.9949 7.36193 37.6331 7.71007C38.2859 8.05822 38.7864 8.51516 39.1345 9.08089V7.36193H42.8553V19.5035H39.1345V17.7845C38.7718 18.3502 38.2641 18.8072 37.6114 19.1553C36.9731 19.5035 36.226 19.6776 35.3702 19.6776C34.3838 19.6776 33.4844 19.4237 32.6721 18.916C31.8597 18.3938 31.2142 17.6612 30.7355 16.7183C30.2713 15.7609 30.0392 14.6585 30.0392 13.4109ZM39.1345 13.4327C39.1345 12.5043 38.8734 11.7718 38.3512 11.235C37.8435 10.6983 37.2197 10.43 36.4799 10.43C35.7401 10.43 35.1091 10.6983 34.5869 11.235C34.0791 11.7573 33.8253 12.4826 33.8253 13.4109C33.8253 14.3393 34.0791 15.0791 34.5869 15.6304C35.1091 16.1671 35.7401 16.4355 36.4799 16.4355C37.2197 16.4355 37.8435 16.1671 38.3512 15.6304C38.8734 15.0936 39.1345 14.3611 39.1345 13.4327ZM49.2679 9.08089C49.6306 8.51516 50.131 8.05822 50.7693 7.71007C51.4076 7.36193 52.1546 7.18786 53.0105 7.18786C54.0114 7.18786 54.918 7.44171 55.7304 7.94942C56.5427 8.45713 57.181 9.18244 57.6452 10.1253C58.1239 11.0682 58.3632 12.1634 58.3632 13.4109C58.3632 14.6585 58.1239 15.7609 57.6452 16.7183C57.181 17.6612 56.5427 18.3938 55.7304 18.916C54.918 19.4237 54.0114 19.6776 53.0105 19.6776C52.1691 19.6776 51.4221 19.5035 50.7693 19.1553C50.131 18.8072 49.6306 18.3575 49.2679 17.8063V25.2914H45.5471V7.36193H49.2679V9.08089ZM54.5771 13.4109C54.5771 12.4826 54.316 11.7573 53.7938 11.235C53.2861 10.6983 52.6551 10.43 51.9008 10.43C51.161 10.43 50.53 10.6983 50.0077 11.235C49.5 11.7718 49.2462 12.5043 49.2462 13.4327C49.2462 14.3611 49.5 15.0936 50.0077 15.6304C50.53 16.1671 51.161 16.4355 51.9008 16.4355C52.6406 16.4355 53.2716 16.1671 53.7938 15.6304C54.316 15.0791 54.5771 14.3393 54.5771 13.4109ZM64.036 9.08089C64.3987 8.51516 64.8991 8.05822 65.5374 7.71007C66.1757 7.36193 66.9227 7.18786 67.7786 7.18786C68.7795 7.18786 69.6861 7.44171 70.4985 7.94942C71.3108 8.45713 71.9491 9.18244 72.4133 10.1253C72.892 11.0682 73.1313 12.1634 73.1313 13.4109C73.1313 14.6585 72.892 15.7609 72.4133 16.7183C71.9491 17.6612 71.3108 18.3938 70.4985 18.916C69.6861 19.4237 68.7795 19.6776 67.7786 19.6776C66.9372 19.6776 66.1902 19.5035 65.5374 19.1553C64.8991 18.8072 64.3987 18.3575 64.036 17.8063V25.2914H60.3152V7.36193H64.036V9.08089ZM69.3452 13.4109C69.3452 12.4826 69.0841 11.7573 68.5619 11.235C68.0542 10.6983 67.4232 10.43 66.6689 10.43C65.9291 10.43 65.2981 10.6983 64.7758 11.235C64.2681 11.7718 64.0143 12.5043 64.0143 13.4327C64.0143 14.3611 64.2681 15.0936 64.7758 15.6304C65.2981 16.1671 65.9291 16.4355 66.6689 16.4355C67.4087 16.4355 68.0397 16.1671 68.5619 15.6304C69.0841 15.0791 69.3452 14.3393 69.3452 13.4109Z" fill="white"/>
</svg>
